<?xml version="1.0" encoding="utf-8"?>
<!-- Generator: Adobe Illustrator 24.2.0, SVG Export Plug-In . SVG Version: 6.00 Build 0)  -->
<svg version="1.1" id="Слой_1" xmlns="http://www.w3.org/2000/svg" xmlns:xlink="http://www.w3.org/1999/xlink" x="0px" y="0px"
	 viewBox="0 0 599 493" style="enable-background:new 0 0 599 493;" xml:space="preserve">
<style type="text/css">
	.st0{fill-rule:evenodd;clip-rule:evenodd;fill:#FFF9EB;stroke:#E8C48E;stroke-width:2;}
	.st1{enable-background:new    ;}
	.st2{fill:#8A704D;}
	.st3{fill:#EE6B47;}
	.st4{fill-rule:evenodd;clip-rule:evenodd;fill:#FFFFFF;}
</style>
<path id="Rectangle-1_1_" class="st0" d="M29.9,244h82c13.5,0,24.5,11,24.5,24.5l0,0c0,13.5-11,24.5-24.5,24.5h-82
	c-13.5,0-24.5-11-24.5-24.5l0,0C5.4,255,16.4,244,29.9,244z"/>
<g class="st1">
	<path class="st2" d="M39.7,263.2v9.8h-5.6v-2.2h3.4v-5.5h-1.2v4.5h-2.2v-6.6H39.7z"/>
	<path class="st2" d="M43.1,263.2v1.1h3.4v2.2h-3.4v4.4h1.2v-3.3h2.2v5.5h-5.6v-9.8H43.1z"/>
	<path class="st2" d="M53.2,263.2v7.7h1.2v2.2h-3.4v-7.7h-1.2v3.3h-2.2v-5.5H53.2z"/>
	<path class="st2" d="M60.7,263.2v7.7h1.2v2.2h-6.8v-9.8h2.2v7.7h1.2v-7.7H60.7z"/>
	<path class="st2" d="M68.2,263.2v5.5H66v-3.3h-1.2v7.7h-2.2v-9.8H68.2z"/>
	<path class="st2" d="M71.6,263.2v5.5h1.3v-2.2h2.2v6.5h-2.2v-2.2h-3.5v-7.6H71.6z"/>
	<path class="st2" d="M81.9,263.2v7.7h1.2v2.2h-3.4v-2.2h-3.4v-5.5h2.2v3.3h1.2v-5.5H81.9z"/>
	<path class="st2" d="M89.3,263.2v7.7h1.2v2.2h-6.8v-9.8h2.2v7.7h1.2v-7.7H89.3z"/>
	<path class="st2" d="M91.3,263.2h5.5v2.2h-5.5V263.2z M96.8,266.4v6.6h-5.5v-6.6H96.8z M93.4,270.8h1.2v-2.2h-1.2V270.8z"/>
	<path class="st2" d="M103.7,263.2v1.1h3.4v2.2h-3.4v4.4h3.4v2.2h-5.6v-9.8H103.7z"/>
</g>
<g>
	<path id="Rectangle-1_2_" class="st0" d="M175.5,439h82c13.5,0,24.5,11,24.5,24.5l0,0c0,13.5-11,24.5-24.5,24.5h-82
		c-13.5,0-24.5-11-24.5-24.5l0,0C151,450,162,439,175.5,439z"/>
	<g class="st1">
		<path class="st2" d="M185.3,458.2v9.8h-5.6v-2.2h3.4v-5.5h-1.2v4.5h-2.2v-6.6H185.3z"/>
		<path class="st2" d="M188.6,458.2v1.1h3.4v2.2h-3.4v4.4h1.2v-3.3h2.2v5.5h-5.6v-9.8H188.6z"/>
		<path class="st2" d="M198.8,458.2v7.7h1.2v2.2h-3.4v-7.7h-1.2v3.3h-2.2v-5.5H198.8z"/>
		<path class="st2" d="M206.3,458.2v7.7h1.2v2.2h-6.8v-9.8h2.2v7.7h1.2v-7.7H206.3z"/>
		<path class="st2" d="M213.8,458.2v5.5h-2.2v-3.3h-1.2v7.7h-2.2v-9.8H213.8z"/>
		<path class="st2" d="M217.2,458.2v5.5h1.3v-2.2h2.2v6.5h-2.2v-2.2H215v-7.6H217.2z"/>
		<path class="st2" d="M227.4,458.2v7.7h1.2v2.2h-3.4v-2.2h-3.4v-5.5h2.2v3.3h1.2v-5.5H227.4z"/>
		<path class="st2" d="M234.9,458.2v7.7h1.2v2.2h-6.8v-9.8h2.2v7.7h1.2v-7.7H234.9z"/>
		<path class="st2" d="M236.8,458.2h5.5v2.2h-5.5V458.2z M242.4,461.4v6.6h-5.5v-6.6H242.4z M239,465.8h1.2v-2.2H239V465.8z"/>
		<path class="st2" d="M249.3,458.2v1.1h3.4v2.2h-3.4v4.4h3.4v2.2h-5.6v-9.8H249.3z"/>
	</g>
</g>
<g>
	<path id="Rectangle-1_3_" class="st0" d="M483.5,439h82c13.5,0,24.5,11,24.5,24.5l0,0c0,13.5-11,24.5-24.5,24.5h-82
		c-13.5,0-24.5-11-24.5-24.5l0,0C459,450,470,439,483.5,439z"/>
	<g class="st1">
		<path class="st2" d="M491.7,458.2v4.4h-2.2v-2.3h-1.2v3.3h3.4v2.2h-3.4v2.2h-2.2v-9.8H491.7z"/>
		<path class="st2" d="M498.5,458.2v7.7h1.2v2.2h-6.8v-9.8h2.2v7.7h1.2v-7.7H498.5z"/>
		<path class="st2" d="M506,458.2v5.5h-2.2v-3.3h-1.2v7.7h-2.2v-9.8H506z"/>
		<path class="st2" d="M509.3,458.2v2.2h3.4v5.5h-2.2v-3.3h-1.2v5.5h-2.2v-9.8H509.3z"/>
		<path class="st2" d="M523,458.2v5.5h1.2v2.2H523v2.2h-2.2v-2.2h-3.4v-7.6H523z M519.6,463.6h1.2v-3.3h-1.2V463.6z"/>
		<path class="st2" d="M530.4,458.2v7.7h1.2v2.2h-6.8v-9.8h2.2v7.7h1.2v-7.7H530.4z"/>
		<path class="st2" d="M534.5,458.2v7.7h3.4v2.2h-5.6v-9.8H534.5z"/>
		<path class="st2" d="M544.1,458.2v9.8h-2.2v-7.7h-1.2v7.7h-2.2v-9.8H544.1z"/>
		<path class="st2" d="M547.5,458.2v5.5h1.2v2.2h-1.2v2.2h-2.2v-9.8H547.5z"/>
		<path class="st2" d="M554.9,458.2v9.8h-5.6v-9.8h2.2v7.7h1.2v-7.7H554.9z"/>
		<path class="st2" d="M561.7,458.2v2.2h-3.4v1.1h3.4v6.6h-5.6l0-3.4h2.2v1.2h1.2v-2.3l-3.4,0v-5.4L561.7,458.2z"/>
	</g>
</g>
<path id="Rectangle-1_4_" class="st0" d="M179.6,244h82c13.5,0,24.5,11,24.5,24.5l0,0c0,13.5-11,24.5-24.5,24.5h-82
	c-13.5,0-24.5-11-24.5-24.5l0,0C155.1,255,166.1,244,179.6,244z"/>
<g class="st1">
	<path class="st2" d="M174.5,263.2v9.8h-5.6v-2.2h3.4v-5.5h-1.2v4.5h-2.2v-6.6H174.5z"/>
	<path class="st2" d="M177.9,263.2v1.1h3.4v2.2h-3.4v4.4h1.2v-3.3h2.2v5.5h-5.6v-9.8H177.9z"/>
	<path class="st2" d="M189.3,263.2v2.2H188v7.7h-5.6v-9.8h2.2v7.7h1.2v-7.7H189.3z"/>
	<path class="st2" d="M200.2,263.2v2.2h-3.4v1.1h3.4v6.6h-5.6v-4.4h-1.2v-2.2h1.2v-3.3H200.2z M196.8,270.8h1.2v-2.3h-1.2V270.8z"/>
	<path class="st2" d="M207,263.2v7.7h1.2v2.2h-6.8v-9.8h2.2v7.7h1.2v-7.7H207z"/>
	<path class="st2" d="M211.7,263.2v7.7h1.2v-3.3h2.2v5.5h-5.6v-7.7h-1.2v-2.2H211.7z"/>
	<path class="st2" d="M221.5,263.2v7.7h1.2v2.2H216v-9.8h2.2v7.7h1.2v-7.7H221.5z"/>
	<path class="st2" d="M229,263.2v9.8h-5.6v-2.2h3.4v-5.5h-1.2v4.5h-2.2v-6.6H229z"/>
	<path class="st2" d="M235.8,263.2v9.8h-2.2v-7.7h-1.2v7.7h-2.2v-9.8H235.8z"/>
	<path class="st2" d="M239.1,263.2v5.5h1.2v2.2h-1.2v2.2H237v-9.8H239.1z"/>
	<path class="st2" d="M247.8,263.2v2.2h-1.2v7.7H241v-9.8h2.2v7.7h1.2v-7.7H247.8z"/>
	<path class="st2" d="M257.5,263.2v5.5h-3.4v1.1h3.4v2.2h-3.4v1.1h-2.2v-9.8H257.5z M254.1,266.5h1.2v-1.1h-1.2V266.5z"/>
	<path class="st2" d="M260.9,263.2v1.1h3.4v2.2h-3.4v4.4h1.2v-3.3h2.2v5.5h-5.6v-9.8H260.9z"/>
	<path class="st2" d="M271.1,263.2v9.8h-2.2v-1.1h-1.2v1.1h-2.2v-3.3h3.4v-4.4h-1.2v3.3h-2.2v-5.5H271.1z"/>
</g>
<g>
	<path id="Rectangle-1_5_" class="st0" d="M321.5,439h98c13.5,0,24.5,11,24.5,24.5l0,0c0,13.5-11,24.5-24.5,24.5h-98
		c-13.5,0-24.5-11-24.5-24.5l0,0C297,450,308,439,321.5,439z"/>
	<g class="st1">
		<path class="st2" d="M326.3,458.2v9.8h-5.6v-9.8h2.2v7.7h1.2v-7.7H326.3z"/>
		<path class="st2" d="M329.7,458.2v2.2h3.4v5.5h1.2v-5.5h2.2v7.7h-5.5v-5.5h-1.2v5.5h-2.2v-9.8H329.7z"/>
		<path class="st2" d="M343.3,458.2v7.7h1.2v2.2h-6.8v-9.8h2.2v7.7h1.2v-7.7H343.3z"/>
		<path class="st2" d="M347.4,458.2v7.7h3.4v2.2h-5.6v-9.8H347.4z"/>
		<path class="st2" d="M360.4,458.2v5.5h1.2v2.2h-1.2v2.2h-2.2v-2.2h-3.4v-7.6H360.4z M357,463.6h1.2v-3.3H357V463.6z"/>
		<path class="st2" d="M367.8,458.2v7.7h1.2v2.2h-6.8v-9.8h2.2v7.7h1.2v-7.7H367.8z"/>
		<path class="st2" d="M374.8,458.2v7.7h1.2v2.2h-3.4v-7.7h-1.2v3.3h-2.2v-5.5H374.8z"/>
		<path class="st2" d="M382.3,458.2v2.2h-3.4v1.1h3.4v6.6h-5.6l0-3.4h2.2v1.2h1.2v-2.3l-3.4,0v-5.4L382.3,458.2z"/>
		<path class="st2" d="M386.8,458.2v7.7h1.2v-3.3h2.2v5.5h-5.6v-7.7h-1.2v-2.2H386.8z"/>
		<path class="st2" d="M396.6,458.2v7.7h1.2v2.2H391v-9.8h2.2v7.7h1.2v-7.7H396.6z"/>
		<path class="st2" d="M404.1,458.2v4.4h-2.2v-2.3h-1.2v3.3h3.4v2.2h-3.4v2.2h-2.2v-9.8H404.1z"/>
		<path class="st2" d="M410.9,458.2v7.7h1.2v2.2h-6.8v-9.8h2.2v7.7h1.2v-7.7H410.9z"/>
		<path class="st2" d="M418.4,458.2v5.5h1.2v2.2h-1.2v2.2h-2.2v-7.7H415v7.7h-2.2v-9.8H418.4z"/>
	</g>
</g>
<path id="Path-1218" class="st3" d="M131.7,131.5v3l-59.3,0v90.2h8l-9.5,19l-9.5-19h8v-93.2H131.7z"/>
<path id="Path-1218-Copy-2" class="st3" d="M281.4,326.4v3l-63,0l-0.3,90.1l8,0l-9.6,19l-9.4-19l8,0l0.3-91.6l0-1.5L281.4,326.4
	L281.4,326.4z"/>
<g>
	<g id="Rectangle-356">
		<path class="st4" d="M40.9,193h60v20h-60V193z"/>
	</g>
	<g class="st1">
		<path class="st2" d="M48.9,197.7v9.8h-5.6v-2.2h3.4v-5.5h-1.2v4.5h-2.2v-6.6H48.9z"/>
		<path class="st2" d="M52.3,197.7v1.1h3.4v2.2h-3.4v4.4h1.2V202h2.2v5.5h-5.6v-9.8H52.3z"/>
		<path class="st2" d="M62.5,197.7v7.7h1.2v2.2h-3.4v-7.7h-1.2v3.3h-2.2v-5.5H62.5z"/>
		<path class="st2" d="M69.9,197.7v7.7h1.2v2.2h-6.8v-9.8h2.2v7.7h1.2v-7.7H69.9z"/>
		<path class="st2" d="M77.4,197.7v5.5h-2.2v-3.3H74v7.7h-2.2v-9.8H77.4z"/>
		<path class="st2" d="M80.8,197.7v5.5h1.3v-2.2h2.2v6.5h-2.2v-2.2h-3.5v-7.6H80.8z"/>
		<path class="st2" d="M87.7,197.7v1.1h3.4v2.2h-3.4v4.4h1.2V202h2.2v5.5h-5.6v-9.8H87.7z"/>
		<path class="st2" d="M94.5,197.7v7.7h3.4v2.2h-5.6v-9.8H94.5z"/>
	</g>
</g>
<g>
	<path id="Rectangle-356_1_" class="st4" d="M186.5,389.8h60v20h-60V389.8z"/>
	<g class="st1">
		<path class="st2" d="M194.5,394.5v9.8h-5.6v-2.2h3.4v-5.5h-1.2v4.5h-2.2v-6.6H194.5z"/>
		<path class="st2" d="M197.9,394.5v1.1h3.4v2.2h-3.4v4.4h1.2v-3.3h2.2v5.5h-5.6v-9.8H197.9z"/>
		<path class="st2" d="M208,394.5v7.7h1.2v2.2h-3.4v-7.7h-1.2v3.3h-2.2v-5.5H208z"/>
		<path class="st2" d="M215.5,394.5v7.7h1.2v2.2h-6.8v-9.8h2.2v7.7h1.2v-7.7H215.5z"/>
		<path class="st2" d="M223,394.5v5.5h-2.2v-3.3h-1.2v7.7h-2.2v-9.8H223z"/>
		<path class="st2" d="M226.4,394.5v5.5h1.3v-2.2h2.2v6.5h-2.2v-2.2h-3.5v-7.6H226.4z"/>
		<path class="st2" d="M233.3,394.5v1.1h3.4v2.2h-3.4v4.4h1.2v-3.3h2.2v5.5h-5.6v-9.8H233.3z"/>
		<path class="st2" d="M240.1,394.5v7.7h3.4v2.2h-5.6v-9.8H240.1z"/>
	</g>
</g>
<path id="Line_1_" class="st3" d="M222.1,182v42.6h8l-9.5,19l-9.5-19h8V182H222.1z"/>
<g>
	<path id="Rectangle-356-Copy-2" class="st4" d="M190.6,193h60v20h-60V193z"/>
	<g class="st1">
		<path class="st2" d="M210.6,197.7v9.8h-2.2v-7.7h-1.2v7.7H205v-9.8H210.6z"/>
		<path class="st2" d="M214,197.7v5.5h1.2v2.2H214v2.2h-2.2v-9.8H214z"/>
		<path class="st2" d="M221.4,197.7v5.5h-2.2v-3.3H218v7.7h-2.2v-9.8H221.4z"/>
		<path class="st2" d="M224.8,197.7v2.2h3.4v5.5H226V202h-1.2v5.5h-2.2v-9.8H224.8z"/>
		<path class="st2" d="M235,197.7v5.4h-3.4v2.3h1.2v-1.2h2.2l0,3.4h-5.6v-6.6h3.4v-1.1h-3.4v-2.2L235,197.7z"/>
	</g>
</g>
<g>
	<path id="Line-Copy-2" class="st3" d="M373,377v42.6h8l-9.5,19l-9.5-19h8V377H373z"/>
	<path id="Rectangle-356-Copy-2_1_" class="st4" d="M341.5,389.8h60v20h-60V389.8z"/>
	<g class="st1">
		<path class="st2" d="M361.5,394.5v9.8h-2.2v-7.7h-1.2v7.7h-2.2v-9.8H361.5z"/>
		<path class="st2" d="M364.9,394.5v5.5h1.2v2.2h-1.2v2.2h-2.2v-9.8H364.9z"/>
		<path class="st2" d="M372.3,394.5v5.5h-2.2v-3.3h-1.2v7.7h-2.2v-9.8H372.3z"/>
		<path class="st2" d="M375.7,394.5v2.2h3.4v5.5h-2.2v-3.3h-1.2v5.5h-2.2v-9.8H375.7z"/>
		<path class="st2" d="M385.9,394.5v5.4h-3.4v2.3h1.2v-1.2h2.2l0,3.4h-5.6v-6.6h3.4v-1.1h-3.4v-2.2L385.9,394.5z"/>
	</g>
</g>
<path id="Path-1218-Copy" class="st3" d="M526,419.5v-93h-85v3h82v90h-8l9.5,19l9.5-19H526z"/>
<g>
	<path id="Rectangle-354_1_" class="st0" d="M279.9,328l91.6,50.9l91.6-50.9l-91.6-50.9L279.9,328L279.9,328z"/>
	<g class="st1">
		<path class="st2" d="M339.3,323.8v5.5h1.2v2.2h-1.2v2.2h-2.2v-2.2h-3.4v-7.6H339.3z M335.9,329.3h1.2v-3.3h-1.2V329.3z"/>
		<path class="st2" d="M346.7,323.8v7.7h1.2v2.2h-6.8v-9.8h2.2v7.7h1.2v-7.7H346.7z"/>
		<path class="st2" d="M353.7,323.8v7.7h1.2v2.2h-3.4v-7.7h-1.2v3.3h-2.2v-5.5H353.7z"/>
		<path class="st2" d="M361.2,323.8v2.2h-3.4v1.1h3.4v6.6h-5.6l0-3.4h2.2v1.2h1.2v-2.3l-3.4,0v-5.4L361.2,323.8z"/>
		<path class="st2" d="M365.7,323.8v7.7h1.2v-3.3h2.2v5.5h-5.6v-7.7h-1.2v-2.2H365.7z"/>
		<path class="st2" d="M375.5,323.8v7.7h1.2v2.2H370v-9.8h2.2v7.7h1.2v-7.7H375.5z"/>
		<path class="st2" d="M383,323.8v4.4h-2.2v-2.3h-1.2v3.3h3.4v2.2h-3.4v2.2h-2.2v-9.8H383z"/>
		<path class="st2" d="M389.8,323.8v7.7h1.2v2.2h-6.8v-9.8h2.2v7.7h1.2v-7.7H389.8z"/>
		<path class="st2" d="M397.3,323.8v5.5h1.2v2.2h-1.2v2.2h-2.2v-7.7h-1.2v7.7h-2.2v-9.8H397.3z"/>
		<path class="st2" d="M404.7,323.8v5.5h-2.2v-3.3h-1.2v5.5h3.4v2.2h-5.6v-9.8H404.7z"/>
		<path class="st2" d="M409.2,319.5v4.4h-3.3v-1.2h1.1v-1h-2.3v-2.2H409.2z"/>
	</g>
</g>
<g>
	<path id="Rectangle-356-Copy_1_" class="st4" d="M494.5,389.8h60v20h-60V389.8z"/>
	<g class="st1">
		<path class="st2" d="M504,394.5v5.5h1.2v2.2H504v2.2h-2.2v-2.2h-3.4v-7.6H504z M500.6,400h1.2v-3.3h-1.2V400z"/>
		<path class="st2" d="M508,394.5v7.7h3.4v2.2h-5.6v-9.8H508z"/>
		<path class="st2" d="M514.1,394.5v2.2h3.4v5.5h1.2v-5.5h2.2v7.7h-5.5v-5.5h-1.2v5.5H512v-9.8H514.1z"/>
		<path class="st2" d="M527.7,394.5v7.7h1.2v2.2h-6.8v-9.8h2.2v7.7h1.2v-7.7H527.7z"/>
		<path class="st2" d="M535.2,394.5v7.7h1.2v2.2H533v-2.2h-3.4v-5.5h2.2v3.3h1.2v-5.5H535.2z"/>
		<path class="st2" d="M542.6,394.5v9.8h-2.2v-7.7h-1.2v7.7h-2.2v-9.8H542.6z"/>
		<path class="st2" d="M549.4,394.5v5.5h-2.2v-3.3H546v7.7h-2.2v-9.8H549.4z"/>
	</g>
</g>
<polygon class="st3" points="381,257.5 371.5,276.5 362,257.5 370,257.5 370,134.5 288,134.5 288,131.5 373,131.5 373,257.5 "/>
<path id="Line" class="st3" d="M222.2,32.7l-0.1,29.7l8,0l-9.5,19l-9.5-19l8,0l0.1-29.7H222.2z"/>
<path id="Rectangle-1" class="st0" d="M195.7,4.6h50c7.7,0,14,6.3,14,14l0,0c0,7.7-6.3,14-14,14h-50c-7.7,0-14-6.3-14-14l0,0
	C181.7,10.9,187.9,4.6,195.7,4.6z"/>
<g class="st1">
	<path class="st2" d="M207.2,13.8v9.8h-5.6v-9.8h2.2v7.7h1.2v-7.7H207.2z"/>
	<path class="st2" d="M210.6,13.8v5.5h1.3v-2.2h2.2v6.5H212v-2.2h-3.5v-7.6H210.6z"/>
	<path class="st2" d="M217.5,13.8V16h3.4v5.5h-2.2v-3.3h-1.2v5.5h-2.2v-9.8H217.5z"/>
	<path class="st2" d="M227.7,13.8v9.8h-2.2v-1.1h-1.2v1.1h-2.2v-3.3h3.4V16h-1.2v3.3h-2.2v-5.5H227.7z"/>
	<path class="st2" d="M234.5,13.8v4.4h-2.2V16h-1.2v3.3h3.4v2.2h-3.4v2.2h-2.2v-9.8H234.5z"/>
</g>
<path id="Rectangle-354" class="st0" d="M129.1,133l91.6,50.9l91.6-50.9l-91.6-50.9L129.1,133L129.1,133z"/>
<g class="st1">
	<path class="st2" d="M212.6,128.8v9.8h-2.2v-7.7h-1.2v7.7H207v-9.8H212.6z"/>
	<path class="st2" d="M217.1,124.5v4.4h-3.3v-1.2h1.1v-1h-2.3v-2.2H217.1z"/>
	<path class="st2" d="M222.6,128.8v7.7h1.2v2.2h-3.4v-2.2h-3.4v-5.5h2.2v3.3h1.2v-5.5H222.6z"/>
	<path class="st2" d="M230.2,128.8v1.1h3.4v2.2h-3.4v4.4h3.4v2.2H228v-9.8H230.2z"/>
</g>
<g>
	<path id="Rectangle-356-Copy" class="st4" d="M341.5,193h60v20h-60V193z"/>
	<g class="st1">
		<path class="st2" d="M359,197.7v7.7h1.2v2.2h-6.8v-9.8h2.2v7.7h1.2v-7.7H359z"/>
		<path class="st2" d="M365.9,197.7v5.5h1.2v2.2h-1.2v2.2h-2.2v-7.7h-1.2v3.3h-2.2v-5.5H365.9z"/>
		<path class="st2" d="M374.6,197.7v2.2h-1.2v7.7h-5.6v-9.8h2.2v7.7h1.2v-7.7H374.6z"/>
		<path class="st2" d="M377.4,197.7v2.2h3.4v5.5h-2.2V202h-1.2v5.5h-2.2v-9.8H377.4z"/>
		<path class="st2" d="M385.4,197.7v7.7h1.2V202h2.2v5.5h-5.6v-7.7H382v-2.2H385.4z"/>
	</g>
</g>
</svg>
